<svg xmlns="http://www.w3.org/2000/svg" xmlns:xlink="http://www.w3.org/1999/xlink" version="1.1" width="512.000000pt" height="512.000000pt" viewBox="0,0,256,256"><g fill="#9a9a9a" fill-rule="nonzero" stroke="none" stroke-width="1" stroke-linecap="butt" stroke-linejoin="miter" stroke-miterlimit="10" stroke-dasharray="" stroke-dashoffset="0" font-family="none" font-weight="none" font-size="none" text-anchor="none" style="mix-blend-mode: normal"><g transform="translate(-0.14792,-0.07021) scale(0.5,0.5)"><g transform="translate(0,512) scale(0.1,-0.1)"><path d="M1704,5070c-37,-15 -54,-50 -54,-112v-58h73c149,0 240,-78 272,-232c5,-28 6,-28 90,-28h85v28c0,16 14,56 30,89c24,47 43,70 86,99l56,39l151,3c91,3 166,0 187,-7c87,-26 163,-112 178,-202l8,-44l85,-3l86,-3l7,50c9,66 57,137 120,176c43,26 61,30 133,34l83,3v62c0,54 -3,66 -26,87l-26,24l-801,2c-441,1 -812,-2 -823,-7z"/><path d="M1523,4720c-12,-5 -26,-18 -32,-29c-8,-14 -11,-440 -11,-1393v-1373l170,170l170,170v1205c-1,1276 1,1223 -47,1248c-25,14 -217,15 -250,2z"/><path d="M2373,4706l-28,-24l-3,-946c-1,-520 1,-946 5,-946c5,0 84,75 176,168l167,167v773v774l-29,29c-29,29 -31,29 -145,29c-107,0 -117,-2 -143,-24z"/><path d="M3239,4701l-29,-29v-514v-513l175,175l176,175l-3,343l-3,344l-28,24c-26,22 -36,24 -143,24c-114,0 -116,0 -145,-29z"/><path d="M4462,4287l-352,-352l155,-155l155,-155l350,351c374,374 369,368 336,432c-8,15 -61,73 -119,130c-91,89 -108,102 -138,102c-31,0 -61,-27 -387,-353z"/><path d="M550,4104c-36,-7 -107,-34 -159,-60c-169,-83 -297,-234 -359,-422c-20,-63 -25,-98 -26,-189c-1,-61 3,-115 7,-119c4,-5 187,171 405,389c316,316 394,399 382,407c-22,14 -174,11 -250,-6z"/><path d="M536,3581l-459,-459l26,-44c15,-23 31,-50 36,-58c9,-12 104,78 491,465c264,264 480,483 480,486c0,9 -93,69 -106,69c-5,0 -216,-207 -468,-459z"/><path d="M3715,3901c-16,-10 -742,-732 -1612,-1603c-1666,-1667 -1602,-1598 -1570,-1655c22,-40 593,-592 619,-598c16,-4 37,-1 54,9c16,8 741,727 1612,1598c1542,1543 1582,1584 1582,1621c0,25 -16,69 -49,135c-46,90 -60,108 -208,254c-151,150 -162,159 -262,207c-57,28 -111,51 -120,51c-9,0 -29,-9 -46,-19z"/><path d="M755,3370c-457,-457 -478,-480 -462,-498c9,-10 34,-28 55,-40l38,-21l463,463l463,463l-36,57c-20,31 -37,56 -38,56c-2,0 -219,-216 -483,-480z"/><path d="M975,3150c-219,-219 -396,-403 -392,-407c14,-13 201,-6 267,11c36,10 103,36 150,59c69,33 102,58 176,132c74,73 98,106 132,175c65,132 94,285 75,388l-8,42z"/><path d="M3383,1978l-173,-173v-848c0,-563 3,-855 10,-868c20,-36 63,-49 165,-49c108,0 146,13 164,57c8,21 11,294 9,1041l-3,1012z"/><path d="M2512,1107l-172,-172v-408c0,-447 1,-452 59,-477c19,-8 67,-11 136,-8c103,3 108,4 131,31l24,28v590c0,324 -1,589 -3,589c-1,0 -80,-78 -175,-173z"/><path d="M1652,247l-163,-163l22,-20c18,-17 36,-19 141,-19c119,0 120,0 144,28c23,27 24,34 24,183c0,85 -1,154 -3,154c-1,0 -75,-73 -165,-163z"/></g></g></g></svg>